<?xml version="1.0" encoding="utf-8"?>
<!-- Generator: Adobe Illustrator 24.1.0, SVG Export Plug-In . SVG Version: 6.00 Build 0)  -->
<svg version="1.1" id="Layer_1" xmlns="http://www.w3.org/2000/svg" xmlns:xlink="http://www.w3.org/1999/xlink" x="0px" y="0px"
	 viewBox="0 0 186 198" style="enable-background:new 0 0 186 198;" xml:space="preserve">
<style type="text/css">
	.st0{fill:url(#SVGID_1_);stroke:#010101;stroke-miterlimit:10;}
	.st1{fill:url(#SVGID_2_);stroke:#010101;stroke-miterlimit:10;}
</style>
<linearGradient id="SVGID_1_" gradientUnits="userSpaceOnUse" x1="-1920.8857" y1="33.1652" x2="-1917.7198" y2="33.1652" gradientTransform="matrix(28.021 0 0 28.021 53876.3672 -837.545)">
	<stop  offset="0" style="stop-color:#231F20"/>
	<stop  offset="0.1189" style="stop-color:#231F20"/>
	<stop  offset="0.2754" style="stop-color:#322F30"/>
	<stop  offset="0.4367" style="stop-color:#3C3A3C"/>
	<stop  offset="0.6061" style="stop-color:#444345"/>
	<stop  offset="0.7872" style="stop-color:#48484A"/>
	<stop  offset="1" style="stop-color:#4A4A4C"/>
</linearGradient>
<path class="st0" d="M125.6,153.7c9.9,0.1,9.9-13.7,0-13.6c33.4-34.4,0.7-55.5-23.9-88.4c12.3-5.2,7.7-22.8-6.2-21.8
	c-13.1-1.1-16.4,17-5.7,21.8c-4.9,6-12.4,15.2-16,19.7l12.4,22.9c0,0,2.3,3.6-1.7,3.7c-3.6,0.1-4.4-3.3-4.4-3.3l-9.9-18.3
	c-18.1,19.8-29.9,40.1-4.4,63.7c-9.9-0.1-9.9,13.7,0,13.6C74.5,153.7,117,153.7,125.6,153.7z"/>
<linearGradient id="SVGID_2_" gradientUnits="userSpaceOnUse" x1="-1951.6694" y1="31.363" x2="-1949.8549" y2="31.363" gradientTransform="matrix(55.478 0 0 55.478 108317.5156 -1591.0063)">
	<stop  offset="0" style="stop-color:#231F20"/>
	<stop  offset="0.1189" style="stop-color:#231F20"/>
	<stop  offset="0.2754" style="stop-color:#322F30"/>
	<stop  offset="0.4367" style="stop-color:#3C3A3C"/>
	<stop  offset="0.6061" style="stop-color:#444345"/>
	<stop  offset="0.7872" style="stop-color:#48484A"/>
	<stop  offset="1" style="stop-color:#4A4A4C"/>
</linearGradient>
<path class="st1" d="M143.7,158c0.5-2.2-1.5-16.1-4.3-18.1H47.5c-3.2,2.1-4.8,15.9-4.3,18.1H143.7z"/>
</svg>
