<?xml version="1.0" encoding="utf-8"?>
<!-- Generator: Adobe Illustrator 24.1.0, SVG Export Plug-In . SVG Version: 6.00 Build 0)  -->
<svg version="1.1" id="Layer_1" xmlns="http://www.w3.org/2000/svg" xmlns:xlink="http://www.w3.org/1999/xlink" x="0px" y="0px"
	 viewBox="0 0 186 210" style="enable-background:new 0 0 186 210;" xml:space="preserve">
<style type="text/css">
	.st0{fill-rule:evenodd;clip-rule:evenodd;fill:url(#SVGID_1_);stroke:#231F20;stroke-miterlimit:10;}
	.st1{fill:url(#SVGID_2_);stroke:#231F20;stroke-miterlimit:10;}
	.st2{fill:url(#SVGID_3_);stroke:#231F20;stroke-miterlimit:10;}
</style>
<linearGradient id="SVGID_1_" gradientUnits="userSpaceOnUse" x1="-937.2556" y1="-112.6718" x2="-917.7641" y2="-112.6718" gradientTransform="matrix(2.8346 0 0 2.9098 2723.5093 380.1524)">
	<stop  offset="0" style="stop-color:#231F20"/>
	<stop  offset="0.1189" style="stop-color:#231F20"/>
	<stop  offset="0.1271" style="stop-color:#242021"/>
	<stop  offset="0.2815" style="stop-color:#323031"/>
	<stop  offset="0.4422" style="stop-color:#3E3C3E"/>
	<stop  offset="0.6099" style="stop-color:#454446"/>
	<stop  offset="0.7892" style="stop-color:#4A494B"/>
	<stop  offset="1" style="stop-color:#4B4B4D"/>
</linearGradient>
<path shape-rendering="geometricPrecision" image-rendering="optimizeQuality" class="st0" d="M104.5,75.6V62.3H120V45h-17.9V29
	H86.6v16H68.7v17.3h15.5v13.3"/>
<linearGradient id="SVGID_2_" gradientUnits="userSpaceOnUse" x1="-1938.4979" y1="37.4374" x2="-1935.7711" y2="37.4374" gradientTransform="matrix(44.9238 0 0 44.9238 87116.2734 -1565.077)">
	<stop  offset="0" style="stop-color:#231F20"/>
	<stop  offset="0.1189" style="stop-color:#231F20"/>
	<stop  offset="0.1271" style="stop-color:#242021"/>
	<stop  offset="0.2815" style="stop-color:#323031"/>
	<stop  offset="0.4422" style="stop-color:#3E3C3E"/>
	<stop  offset="0.6099" style="stop-color:#454446"/>
	<stop  offset="0.7892" style="stop-color:#4A494B"/>
	<stop  offset="1" style="stop-color:#4B4B4D"/>
</linearGradient>
<path class="st1" d="M61.4,158.8c21.1-1.3,42.3,1.7,63.5,0.7c10.3-17.8,28.2-34.9,30-52.4c-0.4-19.3-17.4-23.9-34.4-22.1
	c0.2-4.2,0.5-11.3-5.9-11.2H72.8c-6.3-0.1-6.2,7.1-5.9,11.2c-17.1-1.7-34.1,2.8-34.5,22.1C34.4,125,50.2,139.2,61.4,158.8z"/>
<linearGradient id="SVGID_3_" gradientUnits="userSpaceOnUse" x1="-1947.4089" y1="32.4769" x2="-1945.5159" y2="32.4769" gradientTransform="matrix(49.0684 0 0 49.0684 95601.7031 -1428.9897)">
	<stop  offset="0" style="stop-color:#231F20"/>
	<stop  offset="0.1189" style="stop-color:#231F20"/>
	<stop  offset="0.1271" style="stop-color:#242021"/>
	<stop  offset="0.2815" style="stop-color:#323031"/>
	<stop  offset="0.4422" style="stop-color:#3E3C3E"/>
	<stop  offset="0.6099" style="stop-color:#454446"/>
	<stop  offset="0.7892" style="stop-color:#4A494B"/>
	<stop  offset="1" style="stop-color:#4B4B4D"/>
</linearGradient>
<path class="st2" d="M137.9,172.3c0.5-2-1.5-13.6-4.3-15.4H49.5c-3.1,1.7-4.9,13.4-4.3,15.4H137.9z"/>
</svg>
