<?xml version="1.0" encoding="utf-8"?>
<!-- Generator: Adobe Illustrator 24.1.0, SVG Export Plug-In . SVG Version: 6.00 Build 0)  -->
<svg version="1.1" id="Layer_1" xmlns="http://www.w3.org/2000/svg" xmlns:xlink="http://www.w3.org/1999/xlink" x="0px" y="0px"
	 viewBox="0 0 168.1 166.4" style="enable-background:new 0 0 168.1 166.4;" xml:space="preserve">
<style type="text/css">
	.st0{fill:url(#SVGID_1_);stroke:#010101;stroke-miterlimit:10;}
	.st1{fill:url(#SVGID_2_);stroke:#010101;stroke-miterlimit:10;}
	.st2{opacity:0.92;fill-rule:evenodd;clip-rule:evenodd;fill:#010101;enable-background:new    ;}
</style>
<linearGradient id="SVGID_1_" gradientUnits="userSpaceOnUse" x1="-1962.7808" y1="612.3788" x2="-1960.8403" y2="612.3788" gradientTransform="matrix(59.2871 0 0 -59.2871 116395.7656 36384.5625)">
	<stop  offset="0" style="stop-color:#231F20"/>
	<stop  offset="0.1189" style="stop-color:#231F20"/>
	<stop  offset="0.2754" style="stop-color:#322F30"/>
	<stop  offset="0.4367" style="stop-color:#3C3A3C"/>
	<stop  offset="0.6061" style="stop-color:#444345"/>
	<stop  offset="0.7872" style="stop-color:#48484A"/>
	<stop  offset="1" style="stop-color:#4A4A4C"/>
</linearGradient>
<path class="st0" d="M41.9,134.5C15,102.7,25.5,11.8,98.3,26.8c1.9-1.6,4-3,6.7-4.5c6.5,4.3,3.8,5.9,2.4,9.2c2,0.8,6.4,2.9,9.6,8.4
	c3.2,5.9,13.1,14.6,20.7,18.4c13.8,5.2-1.3,16.1-4.5,19.1c-17.4-13.8-41.9,6.3-45.1-13.5c-0.3-2.7-4.3-2.6-4.3,0.5
	c-0.6,17.6,17.3,36.3,34.2,46.3l-4.1,23.7h-72C41.9,134.4,41.9,134.5,41.9,134.5z"/>
<linearGradient id="SVGID_2_" gradientUnits="userSpaceOnUse" x1="-1956.9834" y1="615.5417" x2="-1954.7837" y2="615.5417" gradientTransform="matrix(49.0684 0 0 -49.0684 96049.9688 30333.0996)">
	<stop  offset="0" style="stop-color:#231F20"/>
	<stop  offset="0.1189" style="stop-color:#231F20"/>
	<stop  offset="0.2754" style="stop-color:#322F30"/>
	<stop  offset="0.4367" style="stop-color:#3C3A3C"/>
	<stop  offset="0.6061" style="stop-color:#444345"/>
	<stop  offset="0.7872" style="stop-color:#48484A"/>
	<stop  offset="1" style="stop-color:#4A4A4C"/>
</linearGradient>
<path class="st1" d="M131.2,141c0.6-2.5-1.7-20.5-5-23.1H28.5c-3.7,2.7-5.7,20.6-5,23.1H131.2z"/>
<path class="st2" d="M102.2,43.2c8.9-0.6,9.4,4.9,9.2,5.3C111.4,48.5,105.8,55.1,102.2,43.2z"/>
</svg>
