<?xml version="1.0" encoding="utf-8"?>
<!-- Generator: Adobe Illustrator 24.1.0, SVG Export Plug-In . SVG Version: 6.00 Build 0)  -->
<svg version="1.1" id="Layer_1" xmlns="http://www.w3.org/2000/svg" xmlns:xlink="http://www.w3.org/1999/xlink" x="0px" y="0px"
	 viewBox="0 0 187 216" style="enable-background:new 0 0 187 216;" xml:space="preserve">
<style type="text/css">
	.st0{fill:url(#SVGID_1_);stroke:#010101;stroke-miterlimit:10;}
	.st1{fill:url(#SVGID_2_);stroke:#010101;stroke-miterlimit:10;}
	.st2{fill:url(#SVGID_3_);stroke:#010101;stroke-miterlimit:10;}
	.st3{fill:url(#SVGID_4_);stroke:#010101;stroke-miterlimit:10;}
</style>
<linearGradient id="SVGID_1_" gradientUnits="userSpaceOnUse" x1="-1878.396" y1="52.7833" x2="-1873.8607" y2="52.7833" gradientTransform="matrix(17.9922 0 0 17.9922 33851.5898 -861.8375)">
	<stop  offset="0" style="stop-color:#231F20"/>
	<stop  offset="0.1189" style="stop-color:#231F20"/>
	<stop  offset="0.2754" style="stop-color:#322F30"/>
	<stop  offset="0.4367" style="stop-color:#3C3A3C"/>
	<stop  offset="0.6061" style="stop-color:#444345"/>
	<stop  offset="0.7872" style="stop-color:#48484A"/>
	<stop  offset="1" style="stop-color:#4A4A4C"/>
</linearGradient>
<path class="st0" d="M95.7,115.4c-54.4-0.7-54.4-54.3,0-55.1C150.1,61,150.1,114.6,95.7,115.4z"/>
<linearGradient id="SVGID_2_" gradientUnits="userSpaceOnUse" x1="-1943.1591" y1="45.0778" x2="-1940.652" y2="45.0778" gradientTransform="matrix(47.3931 0 0 47.3931 92130.0234 -2014.8252)">
	<stop  offset="0" style="stop-color:#231F20"/>
	<stop  offset="0.1189" style="stop-color:#231F20"/>
	<stop  offset="0.2754" style="stop-color:#322F30"/>
	<stop  offset="0.4367" style="stop-color:#3C3A3C"/>
	<stop  offset="0.6061" style="stop-color:#444345"/>
	<stop  offset="0.7872" style="stop-color:#48484A"/>
	<stop  offset="1" style="stop-color:#4A4A4C"/>
</linearGradient>
<path class="st1" d="M43.3,109.9c8.6,7.3,19.5,26.3,24.7,51.1c19.2-0.2,38.6-0.2,57.7-2.2c5.4-23.7,15.9-41.8,24.2-48.9
	c7.1-3.7,11-24.9-5.3-26.8c-13.7,4.7-16.9,12.1-32.1-1h-0.2c-8.5,10.2-22.3,10.1-31.3,0c-6.2,6.6-18.9,10.4-26.5,3.2
	c-2.2-1.5-3.3-2.2-5.8-2.2C32.4,85,36.2,106.2,43.3,109.9z"/>
<linearGradient id="SVGID_3_" gradientUnits="userSpaceOnUse" x1="-1876.8556" y1="50.6852" x2="-1875.2675" y2="50.6852" gradientTransform="matrix(17.9922 0 0 17.9922 33851.5898 -861.8375)">
	<stop  offset="0" style="stop-color:#231F20"/>
	<stop  offset="0.1189" style="stop-color:#231F20"/>
	<stop  offset="0.2754" style="stop-color:#322F30"/>
	<stop  offset="0.4367" style="stop-color:#3C3A3C"/>
	<stop  offset="0.6061" style="stop-color:#444345"/>
	<stop  offset="0.7872" style="stop-color:#48484A"/>
	<stop  offset="1" style="stop-color:#4A4A4C"/>
</linearGradient>
<path class="st2" d="M97,64.7C78,65,78,35.2,97,35.5C116.1,35.2,116.1,65,97,64.7z"/>
<linearGradient id="SVGID_4_" gradientUnits="userSpaceOnUse" x1="-1948.2131" y1="40.4188" x2="-1946.4623" y2="40.4188" gradientTransform="matrix(49.0684 0 0 49.0684 95649.7734 -1817.5369)">
	<stop  offset="0" style="stop-color:#231F20"/>
	<stop  offset="0.1189" style="stop-color:#231F20"/>
	<stop  offset="0.2754" style="stop-color:#322F30"/>
	<stop  offset="0.4367" style="stop-color:#3C3A3C"/>
	<stop  offset="0.6061" style="stop-color:#444345"/>
	<stop  offset="0.7872" style="stop-color:#48484A"/>
	<stop  offset="1" style="stop-color:#4A4A4C"/>
</linearGradient>
<path class="st3" d="M139.4,175.7c0.6-1.5-1.5-18.4-4-19.9H57.7c-2.7,1.6-4.6,18.5-4,19.9H139.4z"/>
</svg>
