<?xml version="1.0" encoding="utf-8"?>
<!-- Generator: Adobe Illustrator 24.1.0, SVG Export Plug-In . SVG Version: 6.00 Build 0)  -->
<svg version="1.1" id="Layer_1" xmlns="http://www.w3.org/2000/svg" xmlns:xlink="http://www.w3.org/1999/xlink" x="0px" y="0px"
	 viewBox="0 0 184 200" style="enable-background:new 0 0 184 200;" xml:space="preserve">
<style type="text/css">
	.st0{fill:url(#SVGID_1_);stroke:#010101;stroke-miterlimit:10;}
	.st1{fill:url(#SVGID_2_);stroke:#010101;stroke-miterlimit:10;}
	.st2{fill:url(#SVGID_3_);stroke:#010101;stroke-miterlimit:10;}
</style>
<linearGradient id="SVGID_1_" gradientUnits="userSpaceOnUse" x1="-1954.0829" y1="34.3147" x2="-1952.051" y2="34.3147" gradientTransform="matrix(53.7417 0 0 53.7417 105057.1562 -1782.7803)">
	<stop  offset="0" style="stop-color:#231F20"/>
	<stop  offset="0.1189" style="stop-color:#231F20"/>
	<stop  offset="0.2754" style="stop-color:#322F30"/>
	<stop  offset="0.4367" style="stop-color:#3C3A3C"/>
	<stop  offset="0.6061" style="stop-color:#444345"/>
	<stop  offset="0.7872" style="stop-color:#48484A"/>
	<stop  offset="1" style="stop-color:#4A4A4C"/>
</linearGradient>
<path class="st0" d="M130.5,82c10.7-7.1,20.6-30.7,20.1-41.3h-27.2l1.9,19.4h-19.1l1.9-19.4H83.9l1.9,19.4H66.7l1.9-19.4H41.4
	C40.1,48.5,51.6,77.9,61.5,82H130.5z"/>
<linearGradient id="SVGID_2_" gradientUnits="userSpaceOnUse" x1="-1942.324" y1="34.8561" x2="-1940.1809" y2="34.8561" gradientTransform="matrix(39.6167 0 0 39.6167 77002.0625 -1259.2324)">
	<stop  offset="0" style="stop-color:#231F20"/>
	<stop  offset="0.1189" style="stop-color:#231F20"/>
	<stop  offset="0.2754" style="stop-color:#322F30"/>
	<stop  offset="0.4367" style="stop-color:#3C3A3C"/>
	<stop  offset="0.6061" style="stop-color:#444345"/>
	<stop  offset="0.7872" style="stop-color:#48484A"/>
	<stop  offset="1" style="stop-color:#4A4A4C"/>
</linearGradient>
<polygon class="st1" points="53.6,160.5 61.7,82.8 130.4,82.8 138.5,160.5 "/>
<linearGradient id="SVGID_3_" gradientUnits="userSpaceOnUse" x1="-1952.3049" y1="34.4076" x2="-1950.2336" y2="34.4076" gradientTransform="matrix(49.0684 0 0 49.0684 95842.0469 -1523.1266)">
	<stop  offset="0" style="stop-color:#231F20"/>
	<stop  offset="0.1189" style="stop-color:#231F20"/>
	<stop  offset="0.2754" style="stop-color:#322F30"/>
	<stop  offset="0.4367" style="stop-color:#3C3A3C"/>
	<stop  offset="0.6061" style="stop-color:#444345"/>
	<stop  offset="0.7872" style="stop-color:#48484A"/>
	<stop  offset="1" style="stop-color:#4A4A4C"/>
</linearGradient>
<path class="st2" d="M146.6,172.5c0.4-2.5-1.5-12.6-4.7-14.6H49.8c-3.5,2-5.2,12-4.7,14.6H146.6z"/>
</svg>
