<?xml version="1.0" encoding="utf-8"?>
<!-- Generator: Adobe Illustrator 24.1.0, SVG Export Plug-In . SVG Version: 6.00 Build 0)  -->
<svg version="1.1" id="Layer_1" xmlns="http://www.w3.org/2000/svg" xmlns:xlink="http://www.w3.org/1999/xlink" x="0px" y="0px"
	 viewBox="0 0 177 200" style="enable-background:new 0 0 177 200;" xml:space="preserve">
<style type="text/css">
	.st0{fill:url(#SVGID_1_);stroke:#010101;stroke-miterlimit:10;}
	.st1{fill:url(#SVGID_2_);stroke:#010101;stroke-miterlimit:10;}
</style>
<linearGradient id="SVGID_1_" gradientUnits="userSpaceOnUse" x1="-1924.3805" y1="41.1822" x2="-1921.3018" y2="41.1822" gradientTransform="matrix(27.7573 0 0 27.7573 53460.5898 -1047.9836)">
	<stop  offset="0" style="stop-color:#CBCCCE"/>
	<stop  offset="0.6606" style="stop-color:#EBECEB"/>
	<stop  offset="1" style="stop-color:#FFFFFF"/>
</linearGradient>
<path class="st0" d="M59.5,158c-9.8,0-8.7-14.3,1-13.2c-25-22.9-14.5-44.9,3.2-64.6L73,98.3c-0.5,1.1,4.4,5.7,7.1,2.5
	c2.1-1.1-12.1-24.7-12.4-26.4c4-5.3,11.4-14.6,15.7-20.3c-10.2-3.8-7.9-23,5-21.8c14-0.8,17.1,17.3,5.5,21.8
	c20.4,28.2,57.9,58.4,22.9,90.7c9.7-1.1,10.8,13.2,1,13.2C117.7,158,59.5,158,59.5,158z"/>
<linearGradient id="SVGID_2_" gradientUnits="userSpaceOnUse" x1="-1960.0264" y1="36.2031" x2="-1958.2035" y2="36.2031" gradientTransform="matrix(58.9844 0 0 58.9844 115645.1641 -1983.4697)">
	<stop  offset="0" style="stop-color:#CBCCCE"/>
	<stop  offset="0.6606" style="stop-color:#EBECEB"/>
	<stop  offset="1" style="stop-color:#FFFFFF"/>
</linearGradient>
<path class="st1" d="M34,161.7c-0.2-3.2,2.8-17.8,5.7-19.5l96.3,0.1c2.1,1.8,5.7,15.9,5.5,19.4H34z"/>
</svg>
