<?xml version="1.0" encoding="utf-8"?>
<!-- Generator: Adobe Illustrator 24.1.0, SVG Export Plug-In . SVG Version: 6.00 Build 0)  -->
<svg version="1.1" id="Layer_1" xmlns="http://www.w3.org/2000/svg" xmlns:xlink="http://www.w3.org/1999/xlink" x="0px" y="0px"
	 viewBox="0 0 201 230" style="enable-background:new 0 0 201 230;" xml:space="preserve">
<style type="text/css">
	.st0{fill-rule:evenodd;clip-rule:evenodd;fill:url(#SVGID_1_);stroke:#010101;stroke-miterlimit:10;}
	.st1{fill:url(#SVGID_2_);stroke:#010101;stroke-miterlimit:10;}
	.st2{fill:url(#SVGID_3_);stroke:#010101;stroke-miterlimit:10;}
</style>
<linearGradient id="SVGID_1_" gradientUnits="userSpaceOnUse" x1="-931.6888" y1="-95.1014" x2="-912.4702" y2="-95.1014" gradientTransform="matrix(2.8346 0 0 2.9098 2714.3364 339.7761)">
	<stop  offset="0" style="stop-color:#F5F6F6"/>
	<stop  offset="1" style="stop-color:#D3D3D3"/>
</linearGradient>
<path shape-rendering="geometricPrecision" image-rendering="optimizeQuality" class="st0" d="M110.6,86.1V72.9h15.3V55.8h-17.6V40
	H93v15.8H75.4v17.1h15.2v13.2"/>
<linearGradient id="SVGID_2_" gradientUnits="userSpaceOnUse" x1="-1933.4983" y1="55.4495" x2="-1930.7247" y2="55.4495" gradientTransform="matrix(44.9238 0 0 44.9238 86896.6484 -2361.7056)">
	<stop  offset="0" style="stop-color:#CBCCCE"/>
	<stop  offset="0.6606" style="stop-color:#EBECEB"/>
	<stop  offset="1" style="stop-color:#FFFFFF"/>
</linearGradient>
<path class="st1" d="M66.9,173c21.5-1.4,43,1.8,64.5,0.8c10.5-18.5,28.7-36.3,30.5-54.5c-0.4-20-17.7-24.8-35-23
	c0.2-4.3,0.5-11.8-6-11.7H78.4c-6.5-0.1-6.3,7.4-6,11.7c-17.4-1.8-34.7,2.9-35.1,23C39.4,137.9,55.4,152.6,66.9,173z"/>
<linearGradient id="SVGID_3_" gradientUnits="userSpaceOnUse" x1="-1942.4047" y1="50.5299" x2="-1940.479" y2="50.5299" gradientTransform="matrix(49.0684 0 0 49.0684 95361.3594 -2300.2209)">
	<stop  offset="0" style="stop-color:#CBCCCE"/>
	<stop  offset="0.6606" style="stop-color:#EBECEB"/>
	<stop  offset="1" style="stop-color:#FFFFFF"/>
</linearGradient>
<path class="st2" d="M144.5,187.2c0.5-2.1-1.5-14.2-4.4-16H54.6c-3.2,1.8-5,14-4.4,16H144.5z"/>
</svg>
