<?xml version="1.0" encoding="utf-8"?>
<!-- Generator: Adobe Illustrator 24.1.0, SVG Export Plug-In . SVG Version: 6.00 Build 0)  -->
<svg version="1.1" id="Layer_1" xmlns="http://www.w3.org/2000/svg" xmlns:xlink="http://www.w3.org/1999/xlink" x="0px" y="0px"
	 viewBox="0 0 183 188" style="enable-background:new 0 0 183 188;" xml:space="preserve">
<style type="text/css">
	.st0{fill:url(#SVGID_1_);stroke:#010101;stroke-miterlimit:10;}
	.st1{fill:url(#SVGID_2_);stroke:#010101;stroke-miterlimit:10;}
	.st2{opacity:0.4;fill-rule:evenodd;clip-rule:evenodd;fill:#020202;enable-background:new    ;}
</style>
<linearGradient id="SVGID_1_" gradientUnits="userSpaceOnUse" x1="-1958.4211" y1="51.6598" x2="-1956.4807" y2="51.6598" gradientTransform="matrix(59.2871 0 0 59.2871 116143.6406 -2975.3601)">
	<stop  offset="0" style="stop-color:#CBCCCE"/>
	<stop  offset="0.6606" style="stop-color:#EBECEB"/>
	<stop  offset="1" style="stop-color:#FFFFFF"/>
</linearGradient>
<path class="st0" d="M48.3,143.5C21.4,111.7,31.9,20.8,104.7,35.8c1.9-1.6,4-3,6.7-4.5c6.5,4.3,3.8,5.9,2.4,9.2
	c2,0.8,6.4,2.9,9.6,8.4c3.2,5.9,13.1,14.6,20.7,18.4c13.8,5.2-1.3,16.1-4.5,19.1c-17.4-13.8-41.9,6.3-45.1-13.5
	c-0.3-2.7-4.3-2.6-4.3,0.5c-0.6,17.6,17.3,36.3,34.2,46.3l-4.1,23.7h-72L48.3,143.5L48.3,143.5z"/>
<linearGradient id="SVGID_2_" gradientUnits="userSpaceOnUse" x1="-1952.6167" y1="48.5146" x2="-1950.4171" y2="48.5146" gradientTransform="matrix(49.0684 0 0 49.0684 95842.0469 -2242.0833)">
	<stop  offset="0" style="stop-color:#CBCCCE"/>
	<stop  offset="0.6606" style="stop-color:#EBECEB"/>
	<stop  offset="1" style="stop-color:#FFFFFF"/>
</linearGradient>
<path class="st1" d="M137.6,150c0.6-2.5-1.7-20.5-5-23.1H34.9c-3.7,2.7-5.7,20.6-5,23.1H137.6z"/>
<path class="st2" d="M108.7,52.2c8.9-0.6,9.4,4.9,9.2,5.3C117.8,57.5,112.2,64,108.7,52.2z"/>
</svg>
