<?xml version="1.0" encoding="utf-8"?>
<!-- Generator: Adobe Illustrator 24.1.0, SVG Export Plug-In . SVG Version: 6.00 Build 0)  -->
<svg version="1.1" id="Layer_1" xmlns="http://www.w3.org/2000/svg" xmlns:xlink="http://www.w3.org/1999/xlink" x="0px" y="0px"
	 viewBox="0 0 226 230" style="enable-background:new 0 0 226 230;" xml:space="preserve">
<style type="text/css">
	.st0{fill:url(#SVGID_1_);stroke:#010101;stroke-miterlimit:10;}
	.st1{fill:url(#SVGID_2_);stroke:#010101;stroke-miterlimit:10;}
	.st2{fill:url(#SVGID_3_);stroke:#010101;stroke-miterlimit:10;}
	.st3{fill:url(#SVGID_4_);stroke:#010101;stroke-miterlimit:10;}
</style>
<linearGradient id="SVGID_1_" gradientUnits="userSpaceOnUse" x1="-1856.5647" y1="56.7277" x2="-1852.0294" y2="56.7277" gradientTransform="matrix(17.9922 0 0 17.9922 33477.7617 -919.8064)">
	<stop  offset="0" style="stop-color:#CBCCCE"/>
	<stop  offset="0.6606" style="stop-color:#EBECEB"/>
	<stop  offset="1" style="stop-color:#FFFFFF"/>
</linearGradient>
<path class="st0" d="M114.6,128.4c-54.4-0.7-54.4-54.3,0-55.1C169,74.1,169,127.6,114.6,128.4z"/>
<linearGradient id="SVGID_2_" gradientUnits="userSpaceOnUse" x1="-1921.223" y1="49.0588" x2="-1918.7144" y2="49.0588" gradientTransform="matrix(47.3931 0 0 47.3931 91109.375 -2190.3982)">
	<stop  offset="0" style="stop-color:#CBCCCE"/>
	<stop  offset="0.6606" style="stop-color:#EBECEB"/>
	<stop  offset="1" style="stop-color:#FFFFFF"/>
</linearGradient>
<path class="st1" d="M62.3,123c8.6,7.3,19.5,26.3,24.7,51.1c19.2-0.2,38.6-0.2,57.7-2.2c5.4-23.7,15.9-41.8,24.2-48.9
	c7.1-3.7,11-24.9-5.3-26.8c-13.7,4.7-16.9,12.1-32.1-1h-0.2c-8.5,10.2-22.3,10.1-31.3,0c-6.2,6.6-18.9,10.4-26.5,3.2
	c-2.2-1.5-3.3-2.2-5.8-2.2C51.3,98,55.1,119.3,62.3,123z"/>
<linearGradient id="SVGID_3_" gradientUnits="userSpaceOnUse" x1="-1855.0243" y1="54.6296" x2="-1853.4376" y2="54.6296" gradientTransform="matrix(17.9922 0 0 17.9922 33477.7617 -919.8064)">
	<stop  offset="0" style="stop-color:#CBCCCE"/>
	<stop  offset="0.6606" style="stop-color:#EBECEB"/>
	<stop  offset="1" style="stop-color:#FFFFFF"/>
</linearGradient>
<path class="st2" d="M116,77.7c-19,0.3-19-29.5,0-29.2C135,48.3,135,78,116,77.7z"/>
<linearGradient id="SVGID_4_" gradientUnits="userSpaceOnUse" x1="-1926.275" y1="44.4005" x2="-1924.5242" y2="44.4005" gradientTransform="matrix(49.0684 0 0 49.0684 94592.2734 -1999.8107)">
	<stop  offset="0" style="stop-color:#CBCCCE"/>
	<stop  offset="0.6606" style="stop-color:#EBECEB"/>
	<stop  offset="1" style="stop-color:#FFFFFF"/>
</linearGradient>
<path class="st3" d="M158.4,188.8c0.6-1.5-1.5-18.4-4-19.9H76.7c-2.7,1.6-4.6,18.5-4,19.9H158.4z"/>
</svg>
