<?xml version="1.0" encoding="utf-8"?>
<!-- Generator: Adobe Illustrator 24.1.0, SVG Export Plug-In . SVG Version: 6.00 Build 0)  -->
<svg version="1.1" id="Layer_1" xmlns="http://www.w3.org/2000/svg" xmlns:xlink="http://www.w3.org/1999/xlink" x="0px" y="0px"
	 viewBox="0 0 225 226" style="enable-background:new 0 0 225 226;" xml:space="preserve">
<style type="text/css">
	.st0{fill:url(#SVGID_1_);stroke:#010101;stroke-miterlimit:10;}
	.st1{fill:url(#SVGID_2_);stroke:#010101;stroke-miterlimit:10;}
	.st2{fill:url(#SVGID_3_);stroke:#010101;stroke-miterlimit:10;}
</style>
<linearGradient id="SVGID_1_" gradientUnits="userSpaceOnUse" x1="-1940.022" y1="46.3724" x2="-1938.0417" y2="46.3724" gradientTransform="matrix(53.7417 0 0 53.7417 104318.7734 -2423.6807)">
	<stop  offset="0" style="stop-color:#CBCCCE"/>
	<stop  offset="0.6606" style="stop-color:#EBECEB"/>
	<stop  offset="1" style="stop-color:#FFFFFF"/>
</linearGradient>
<path class="st0" d="M145.5,89.1c10.5-7.1,20.1-30.9,19.6-41.3h-26.5l1.9,19.4h-18.6l1.9-19.4h-23.7l1.9,19.4H83.4l1.9-19.4H58.8
	c-1.3,7.5,9.9,37.2,19.6,41.3H145.5z"/>
<linearGradient id="SVGID_2_" gradientUnits="userSpaceOnUse" x1="-1928.2507" y1="46.9331" x2="-1926.1608" y2="46.9331" gradientTransform="matrix(39.6167 0 0 39.6167 76461.4297 -1730.6328)">
	<stop  offset="0" style="stop-color:#CBCCCE"/>
	<stop  offset="0.6606" style="stop-color:#EBECEB"/>
	<stop  offset="1" style="stop-color:#FFFFFF"/>
</linearGradient>
<polygon class="st1" points="70.5,167.6 78.4,89.8 145.4,89.8 153.3,167.6 "/>
<linearGradient id="SVGID_3_" gradientUnits="userSpaceOnUse" x1="-1938.2408" y1="46.4688" x2="-1936.2198" y2="46.4688" gradientTransform="matrix(49.0684 0 0 49.0684 95169.0938 -2107.9473)">
	<stop  offset="0" style="stop-color:#CBCCCE"/>
	<stop  offset="0.6606" style="stop-color:#EBECEB"/>
	<stop  offset="1" style="stop-color:#FFFFFF"/>
</linearGradient>
<path class="st2" d="M161.3,179.5c0.4-2.3-1.5-12.7-4.6-14.6H66.9c-3.4,1.8-5.2,12.2-4.6,14.6H161.3z"/>
</svg>
